<svg width="290" height="79" viewBox="0 0 290 79" fill="none" xmlns="http://www.w3.org/2000/svg">
<path d="M8.96 32.408C9.04533 31.384 9.216 29.976 9.472 28.184C10.496 18.6267 11.264 12.952 11.776 11.16C12.288 9.28266 13.44 7.78933 15.232 6.68C18.4747 6.33867 22.3147 5.99733 26.752 5.656C31.2747 5.22933 36.6933 5.05866 43.008 5.144C49.408 5.22933 53.1627 5.86933 54.272 7.064C55.3813 8.25866 56.4053 11.3733 57.344 16.408C58.368 21.4427 59.392 27.3733 60.416 34.2C61.44 41.0267 62.3787 46.104 63.232 49.432C64.256 53.016 65.6213 56.8133 67.328 60.824C69.12 64.8347 70.4853 68.0773 71.424 70.552C72.3627 72.9413 72.6613 74.7333 72.32 75.928C71.9787 77.1227 69.632 77.976 65.28 78.488C60.928 78.9147 56.4053 79.0427 51.712 78.872C47.104 78.7013 43.9467 78.36 42.24 77.848C40.8747 77.4213 39.9787 76.5253 39.552 75.16C39.2107 73.7947 39.1253 71.704 39.296 68.888C39.4667 66.072 39.5093 64.408 39.424 63.896C39.424 62.7013 40.0213 61.592 41.216 60.568C42.4107 59.544 43.7333 58.7333 45.184 58.136C46.6347 57.5387 47.9573 56.856 49.152 56.088C50.3467 55.2347 50.944 54.3813 50.944 53.528C50.7733 51.8213 49.8773 51.352 48.256 52.12C47.6587 52.4613 46.5067 53.1867 44.8 54.296C43.52 55.1493 42.496 55.7893 41.728 56.216C40.5333 56.984 39.3387 57.4533 38.144 57.624C37.0347 57.7947 35.968 57.752 34.944 57.496C33.92 57.24 32.9387 56.9413 32 56.6C31.1467 56.2587 30.208 55.9173 29.184 55.576C28.16 55.1493 27.264 54.936 26.496 54.936C24.6187 54.8507 23.7653 55.192 23.936 55.96C24.192 57.1547 26.4533 58.904 30.72 61.208C32.4267 62.0613 33.5787 63.384 34.176 65.176C34.8587 66.8827 35.0293 68.632 34.688 70.424C34.3467 72.1307 33.792 73.7093 33.024 75.16C32.3413 76.5253 31.5733 77.336 30.72 77.592C29.5253 78.0187 26.7093 78.36 22.272 78.616C17.8347 78.872 13.2693 78.744 8.576 78.232C3.968 77.6347 1.32267 76.5253 0.64 74.904C-0.128 73.368 -0.0426667 70.808 0.896 67.224C1.92 63.64 3.328 58.5627 5.12 51.992C6.912 45.336 8.192 38.808 8.96 32.408ZM36.352 28.696C36.0107 26.904 35.6693 25.5387 35.328 24.6C35.072 23.576 34.688 22.8933 34.176 22.552C33.7493 22.1253 33.4507 21.8693 33.28 21.784C33.1093 21.6987 32.64 21.7413 31.872 21.912C31.1893 22.0827 30.72 22.2107 30.464 22.296C29.8667 22.552 29.3973 22.936 29.056 23.448C28.7147 23.96 28.544 24.6 28.544 25.368C28.544 26.136 28.5867 26.904 28.672 27.672C28.7573 28.3547 28.9707 29.208 29.312 30.232C29.7387 31.256 30.08 32.152 30.336 32.92C30.592 33.6027 30.9333 34.456 31.36 35.48C31.872 36.504 32.2133 37.2293 32.384 37.656C33.408 40.1307 34.4747 41.6667 35.584 42.264C36.6933 42.776 38.0587 42.4773 39.68 41.368C40.2773 40.9413 40.6187 40.5147 40.704 40.088C40.8747 39.6613 40.7893 39.1067 40.448 38.424C40.1067 37.7413 39.7227 37.016 39.296 36.248C38.8693 35.48 38.3573 34.4133 37.76 33.048C37.1627 31.6827 36.6933 30.232 36.352 28.696ZM77.912 76.056C76.2053 75.544 74.9253 69.3573 74.072 57.496C73.2187 45.5493 73.1333 33.4747 73.816 21.272C74.4987 9.06933 75.864 2.49866 77.912 1.56C80.3867 0.791997 84.3973 0.450663 89.944 0.535995C95.4907 0.535995 99.16 0.87733 100.952 1.56C102.573 2.15733 103.597 3.77866 104.024 6.424C104.536 9.06933 104.408 11.416 103.64 13.464C103.299 14.488 102.147 15.384 100.184 16.152C98.3067 16.8347 96.2587 17.7307 94.04 18.84C91.8213 19.864 90.2427 21.3573 89.304 23.32C87.5973 26.904 86.7013 30.9147 86.616 35.352C86.5307 39.704 87.4267 41.9227 89.304 42.008C90.328 42.008 90.84 41.4533 90.84 40.344C90.9253 39.1493 90.968 37.2293 90.968 34.584C91.0533 31.9387 91.6507 29.4213 92.76 27.032C94.04 24.216 96.6853 21.9973 100.696 20.376C104.792 18.7547 108.931 18.1147 113.112 18.456C117.293 18.712 120.28 19.992 122.072 22.296C124.888 25.9653 126.595 33.2613 127.192 44.184C127.789 55.0213 126.765 63.8533 124.12 70.68C123.096 73.24 120.963 75.2027 117.72 76.568C114.477 77.848 110.936 78.616 107.096 78.872C103.341 79.0427 99.288 78.9573 94.936 78.616C90.584 78.1893 87.0427 77.7627 84.312 77.336C81.5813 76.824 79.448 76.3973 77.912 76.056ZM101.976 48.536C102.403 51.1813 102.317 53.6133 101.72 55.832C101.123 57.9653 100.44 59.4587 99.672 60.312L98.392 61.464C98.7333 61.5493 99.16 61.6347 99.672 61.72C100.184 61.72 101.037 61.5493 102.232 61.208C103.512 60.7813 104.579 60.056 105.432 59.032C106.968 57.24 108.035 53.6133 108.632 48.152C109.315 42.6907 108.717 39.1067 106.84 37.4C104.536 35.6933 102.915 36.2907 101.976 39.192C101.208 41.5813 101.208 44.696 101.976 48.536ZM159.589 18.456C167.781 18.456 174.736 21.4 180.453 27.288C186.256 33.176 189.157 40.3013 189.157 48.664C189.157 56.9413 186.256 64.0667 180.453 70.04C174.736 75.928 167.781 78.872 159.589 78.872C151.397 78.872 144.4 75.928 138.597 70.04C132.794 64.152 129.893 57.0267 129.893 48.664C129.893 40.3013 132.794 33.176 138.597 27.288C144.4 21.4 151.397 18.456 159.589 18.456ZM156.901 37.912C156.474 38.0827 156.176 38.2533 156.005 38.424C155.834 38.5947 155.749 38.8933 155.749 39.32C155.749 39.7467 155.792 40.216 155.877 40.728C155.962 41.1547 156.048 41.9653 156.133 43.16C156.304 44.3547 156.389 45.6347 156.389 47C156.474 49.048 156.432 51.1813 156.261 53.4C156.176 55.6187 156.133 57.1973 156.133 58.136C156.133 58.9893 156.304 59.5867 156.645 59.928C157.157 60.5253 158.352 60.824 160.229 60.824C162.106 60.7387 163.173 60.2693 163.429 59.416C163.514 58.4773 163.514 57.5387 163.429 56.6C163.344 55.576 163.216 53.9547 163.045 51.736C162.874 49.432 162.789 47.384 162.789 45.592C162.874 44.1413 162.96 42.9467 163.045 42.008C163.13 40.984 163.216 40.3867 163.301 40.216C163.386 39.96 163.386 39.7893 163.301 39.704C163.301 39.5333 163.216 39.2773 163.045 38.936C161.936 37.4 159.888 37.0587 156.901 37.912ZM193.075 59.16C193.246 57.2827 193.203 54.0827 192.947 49.56C192.776 45.0373 192.563 40.728 192.307 36.632C192.051 32.536 191.966 28.7813 192.051 25.368C192.136 21.9547 192.52 20.12 193.203 19.864C195.251 18.84 199.134 18.2853 204.851 18.2C210.568 18.1147 213.598 18.328 213.939 18.84C214.11 19.0107 214.195 19.2667 214.195 19.608C214.28 19.9493 214.238 20.5893 214.067 21.528C213.982 22.4667 213.854 23.576 213.683 24.856C213.598 26.0507 213.427 27.8853 213.171 30.36C213 32.8347 212.83 35.48 212.659 38.296C212.232 49.304 213.555 55.832 216.627 57.88C217.907 58.7333 219.272 58.6053 220.723 57.496C221.918 56.6427 222.6 54.3387 222.771 50.584C223.027 46.744 222.942 42.776 222.515 38.68C222.088 34.4987 221.79 30.5733 221.619 26.904C221.448 23.1493 221.534 20.888 221.875 20.12C222.472 19.1813 223.795 18.6267 225.843 18.456C227.976 18.2853 230.792 18.3707 234.291 18.712C237.79 19.0533 240.008 19.224 240.947 19.224C243.507 19.224 245 19.6507 245.427 20.504C245.854 21.3573 245.939 24.0453 245.683 28.568C245.598 30.0187 245.512 31.1707 245.427 32.024C245.256 35.5227 245.256 40.6427 245.427 47.384C245.683 54.04 245.896 60.0133 246.067 65.304C246.323 70.5947 246.366 73.6667 246.195 74.52C245.939 75.8853 243.891 76.7813 240.051 77.208C236.211 77.5493 232.712 77.5067 229.555 77.08C228.104 76.9093 227.251 76.3973 226.995 75.544C226.824 74.6907 227.038 73.6667 227.635 72.472C228.232 71.2773 228.702 69.9973 229.043 68.632C229.384 67.2667 229.384 66.0293 229.043 64.92C228.446 63.64 227.72 63.768 226.867 65.304C226.782 65.6453 226.568 66.1573 226.227 66.84C223.752 71.96 221.15 75.16 218.419 76.44C217.224 76.952 216.03 77.208 214.835 77.208C212.36 77.2933 210.227 77.2933 208.435 77.208C206.728 77.0373 204.766 76.6533 202.547 76.056C200.328 75.3733 198.536 74.4347 197.171 73.24C195.891 71.96 194.824 70.168 193.971 67.864C193.118 65.4747 192.819 62.5733 193.075 59.16ZM259.63 22.552C259.971 21.784 260.142 19.6933 260.142 16.28C260.142 12.8667 260.313 9.70933 260.654 6.808C260.995 3.82133 261.849 2.19999 263.214 1.94399C265.433 1.34666 268.547 1.09066 272.558 1.17599C276.654 1.17599 278.958 1.77333 279.47 2.96799C279.811 4.16266 279.939 5.99733 279.854 8.472C279.769 10.9467 279.555 13.4213 279.214 15.896L278.702 19.608C278.873 19.5227 279.043 19.48 279.214 19.48C279.47 19.48 279.897 19.4373 280.494 19.352C281.091 19.2667 281.689 19.224 282.286 19.224C282.969 19.1387 283.694 19.096 284.462 19.096C285.23 19.096 285.955 19.1813 286.638 19.352C287.321 19.4373 287.833 19.8213 288.174 20.504C288.601 21.1867 288.857 22.04 288.942 23.064C289.113 24.0027 289.198 25.112 289.198 26.392C289.283 27.5867 289.283 28.7813 289.198 29.976C289.198 31.1707 289.241 32.28 289.326 33.304C289.411 34.84 289.027 35.9493 288.174 36.632C287.321 37.2293 286.126 37.784 284.59 38.296C283.054 38.7227 281.902 39.32 281.134 40.088C280.11 41.1973 279.299 43.5013 278.702 47C278.105 50.4133 278.275 53.1013 279.214 55.064C279.726 55.4907 280.281 55.6613 280.878 55.576C281.561 55.4907 282.457 55.2773 283.566 54.936C284.675 54.5947 285.358 54.424 285.614 54.424C286.211 54.424 286.681 54.5947 287.022 54.936C287.449 55.2773 287.747 55.7893 287.918 56.472C288.174 57.0693 288.387 57.6667 288.558 58.264C288.729 58.8613 288.814 59.7573 288.814 60.952C288.814 62.0613 288.814 63.0427 288.814 63.896C288.814 64.664 288.814 65.7733 288.814 67.224C288.814 68.6747 288.814 69.8267 288.814 70.68C288.814 73.3253 287.321 75.288 284.334 76.568C281.347 77.848 277.977 78.4453 274.222 78.36C270.467 78.2747 266.926 77.7627 263.598 76.824C262.659 76.568 261.806 76.0987 261.038 75.416C260.27 74.7333 259.63 73.8373 259.118 72.728C258.691 71.6187 258.307 70.552 257.966 69.528C257.71 68.4187 257.539 67.096 257.454 65.56C257.369 63.9387 257.283 62.616 257.198 61.592C257.198 60.4827 257.241 59.0747 257.326 57.368C257.497 55.6613 257.582 54.424 257.582 53.656C257.667 52.888 257.795 51.7787 257.966 50.328C258.137 48.792 258.222 47.9813 258.222 47.896C258.307 46.616 259.033 45.72 260.398 45.208C261.763 44.6107 263.214 44.312 264.75 44.312C266.286 44.312 267.566 44.0987 268.59 43.672C269.614 43.2453 269.913 42.52 269.486 41.496C269.23 40.3867 268.206 39.8747 266.414 39.96C264.707 40.0453 262.915 40.3867 261.038 40.984C259.161 41.496 257.241 41.9653 255.278 42.392C253.315 42.8187 251.993 42.8613 251.31 42.52C249.945 41.8373 249.219 40.1307 249.134 37.4C249.049 34.584 249.305 31.8107 249.902 29.08C249.987 28.824 250.03 28.6533 250.03 28.568C250.03 28.4827 250.03 28.3547 250.03 28.184C250.115 28.0133 250.158 27.8427 250.158 27.672C250.329 26.3067 250.841 25.368 251.694 24.856C252.633 24.2587 253.571 23.96 254.51 23.96C255.534 23.96 256.558 23.8747 257.582 23.704C258.606 23.5333 259.289 23.1493 259.63 22.552Z" fill="#23B3C0"/>
</svg>
