<svg width="80" height="80" viewBox="0 0 80 80" fill="none" xmlns="http://www.w3.org/2000/svg">
<g opacity="0.8">
<g clip-path="url(#clip0)">
<path d="M56.6034 29.7184C56.223 29.4075 55.7201 29.2855 55.2382 29.3859L43.6886 31.7853C46.1712 28.5016 47.3754 22.5811 47.3754 20.7069C47.3754 16.6413 44.0653 13.3333 40.0018 13.3333C35.9341 13.3333 32.6277 16.6413 32.6277 20.707C32.6277 22.5811 33.8286 28.5017 36.3145 31.7861L24.7636 29.3859C24.2798 29.2856 23.7789 29.4076 23.3966 29.7184C23.0161 30.0289 22.7925 30.4951 22.7925 30.9883V40.5214C22.7925 41.0147 23.0161 41.4806 23.3966 41.7915C23.779 42.102 24.2798 42.2244 24.7636 42.1239L36.0144 39.7865L33.4101 64.8609C33.3611 65.3217 33.5112 65.7818 33.8222 66.1256C34.1327 66.4704 34.5741 66.6668 35.037 66.6668H44.963C45.4273 66.6668 45.8672 66.4705 46.1778 66.1256C46.4885 65.7818 46.6387 65.3217 46.5896 64.8609L43.9856 39.7866L55.2382 42.124C55.7201 42.2245 56.223 42.1022 56.6034 41.7916C56.9872 41.4807 57.2075 41.0148 57.2075 40.5215V30.9884C57.2075 30.4951 56.9872 30.029 56.6034 29.7184ZM40.0018 16.9083C42.0967 16.9083 43.8005 18.6122 43.8005 20.7069C43.8005 23.933 41.3567 30.2018 40.0018 30.4637C38.6473 30.2018 36.2034 23.933 36.2034 20.7069C36.2032 18.6122 37.9072 16.9083 40.0018 16.9083Z" fill="#24B6C3"/>
</g>
<circle cx="40" cy="40" r="38.5" stroke="#24B6C3" stroke-width="3" stroke-dasharray="7 7"/>
</g>
<defs>
<clipPath id="clip0">
<rect width="53.3333" height="53.3333" fill="white" transform="translate(13.3333 13.3333)"/>
</clipPath>
</defs>
</svg>
