<svg width="450" height="81" viewBox="0 0 450 81" fill="none" xmlns="http://www.w3.org/2000/svg">
<path d="M1.97808 42.248C0.438884 24.8093 -0.201754 14.765 0.0561651 12.1151C0.314084 9.37785 1.21056 7.2833 2.74559 5.83146C6.25246 4.37963 13.2849 3.54763 23.843 3.33547C34.401 3.12331 41.0902 3.39787 43.9107 4.15915C54.7683 6.13098 61.0082 13.3985 62.6306 25.9616C63.16 29.5182 63.0819 33.1389 62.3998 36.6694C61.7009 39.8768 60.6047 42.4185 59.1113 44.2947C57.8159 45.9885 56.2569 47.4633 54.4937 48.6627C53.1273 49.6038 51.562 50.2166 49.9198 50.4535C44.1915 51.1399 41.2795 51.9532 41.1838 52.8934C41.265 53.5174 41.8078 54.1414 42.8499 54.8153C44.5208 55.4718 46.3363 55.6721 48.1102 55.3956C49.8673 55.0262 51.5849 54.4892 53.2395 53.7919C55.1115 53.0182 56.2721 52.6375 56.6964 52.6375C58.2356 52.7249 60.1825 53.9417 62.537 56.2879C64.8916 58.6341 65.9316 61.1301 65.657 63.7759C65.241 67.3659 62.9114 70.8063 58.6683 74.0968C54.4251 77.3873 49.9156 78.3504 45.14 76.9859C43.4556 76.5089 41.8388 75.819 40.329 74.933C39.1596 74.2326 38.1719 73.2663 37.4461 72.1125C36.8201 71.1221 36.2834 70.078 35.8424 68.9925C35.4555 68.0128 35.0312 66.7461 34.557 65.2111C34.1564 63.8544 33.6644 62.5264 33.0844 61.2362C32.3045 59.4452 31.1712 57.8301 29.7522 56.4876C28.5541 55.4642 27.4413 54.9941 26.4138 55.0773C25.3407 55.1794 24.2968 55.4843 23.3375 55.9759C22.8744 56.3393 22.563 56.862 22.4639 57.4423C22.4202 57.9165 22.7198 58.4282 23.3625 58.9836C23.934 59.4877 24.534 59.9586 25.1596 60.3938C26.0473 60.9776 26.9659 61.5129 27.9114 61.9975C29.7959 63.1082 30.9295 65.1383 31.3122 68.0877C31.715 70.92 31.2403 73.8077 29.9519 76.3619C29.1865 77.9843 26.8985 79.095 23.0879 79.6941C19.3342 80.2906 15.5191 80.3996 11.7374 80.0185C7.99341 79.6317 5.55774 79.0971 4.43039 78.4149C3.49023 77.8158 2.99727 76.6822 2.95151 75.0141C2.90575 73.3459 2.90575 69.3939 2.95151 63.1581C2.98895 56.914 2.66447 49.9439 1.97808 42.248ZM28.2671 34.4293C28.2734 35.3066 28.2318 36.1836 28.1423 37.0563C28.0372 37.6385 28.1022 38.2386 28.3295 38.7848C28.4999 39.1186 28.65 39.4624 28.7788 39.8144C28.8324 39.9512 28.9164 40.074 29.0245 40.1734C29.1326 40.2729 29.262 40.3464 29.4028 40.3884C29.6462 40.4949 29.9055 40.5603 30.1703 40.5819H32.2232C32.8833 40.538 33.5241 40.3414 34.0952 40.0078C34.5861 39.6771 34.9304 39.1697 35.0562 38.5913C35.2309 37.9673 35.3807 37.3433 35.5055 36.8629C35.6399 36.1201 35.6399 35.3592 35.5055 34.6165C35.3807 33.6368 35.2933 32.9067 35.2496 32.4387C35.2059 31.9707 35.0811 31.1907 34.8627 30.1299C34.723 29.5121 34.6168 28.8872 34.5445 28.2579C34.1285 26.1239 33.4671 24.7344 32.5602 24.0896C31.6533 23.4448 30.2639 23.3804 28.3919 23.8962C27.537 24.152 27.0441 24.5202 26.913 25.0506C26.7953 25.6554 26.8627 26.2817 27.1065 26.8477C27.456 27.8674 27.7353 28.9099 27.9426 29.9677C28.2508 31.4335 28.36 32.9343 28.2671 34.4293V34.4293Z" fill="#24B6C3"/>
<path d="M76.9951 73.6662C73.6671 72.0439 71.2522 68.4746 69.7505 62.9584C68.25 57.427 67.664 51.6875 68.0158 45.967C68.2923 40.6186 69.0018 35.3013 70.1373 30.0675C71.2189 25.2835 72.3941 22.7189 73.6629 22.3736C75.8581 21.0056 78.2635 20.0084 80.7827 19.4221C83.7677 18.6487 86.8136 18.1331 89.8869 17.8809C93.1061 17.6244 96.3367 17.539 99.5651 17.625C102.903 17.7124 105.955 17.9058 108.738 18.2053C111.135 18.4388 113.513 18.8454 115.851 19.4221C118.934 20.0212 121.264 21.8807 122.84 25.0007C124.436 28.1747 125.167 31.7127 124.962 35.2592C124.856 38.7072 124.024 42.0942 122.522 45.1995C121.42 47.3299 119.673 49.0575 117.53 50.1353C115.281 51.3565 112.82 52.1399 110.279 52.4441C107.758 52.7436 105.152 52.9786 102.46 53.1492C100.174 53.3334 97.8744 53.2895 95.5964 53.0182H93.4125C91.9228 52.8552 90.4239 52.7927 88.9259 52.831C87.7397 52.8531 86.5578 52.9805 85.3941 53.2116C84.9623 53.285 84.5507 53.4485 84.1863 53.6915C83.8218 53.9345 83.5126 54.2515 83.2787 54.6218C82.8627 55.354 82.8627 56.317 83.2787 57.5109C84.2189 60.0735 88.5161 61.3548 96.1705 61.3548C103.825 61.3548 109.624 60.2441 113.568 58.0226C116.13 56.5666 118.289 55.9676 120.045 56.2255C121.798 56.4814 122.909 57.5983 123.383 59.5639C123.857 61.5295 123.489 64.4373 122.291 68.2999C121.093 71.8899 117.765 74.5398 112.307 76.2496C106.416 78.0119 100.236 78.6034 94.1176 77.9905C87.4907 77.4206 81.7832 75.9792 76.9951 73.6662ZM92.7697 32.888C91.4501 32.8688 90.1521 33.2236 89.0257 33.9114C88.0069 34.5085 87.1499 35.3462 86.5298 36.3512C85.985 37.2738 85.5135 38.2377 85.1195 39.2341C84.7921 40.0483 84.5149 40.8818 84.2896 41.73L84.1586 42.7534C84.5626 42.2838 85.0684 41.9124 85.6374 41.6676C86.2447 41.3772 86.8928 41.1815 87.5594 41.0873L90.4422 40.7067C91.7277 40.532 92.8384 40.3635 93.7806 40.1888C94.5 40.1365 95.1972 39.9162 95.816 39.5456C96.4348 39.1749 96.958 38.6643 97.3436 38.0547C97.7368 37.5541 97.9557 36.9388 97.967 36.3024C97.9783 35.666 97.7813 35.0433 97.406 34.5291C96.6281 33.435 95.0827 32.888 92.7697 32.888V32.888Z" fill="#24B6C3"/>
<path d="M137.279 22.1178C137.623 21.344 137.797 19.2536 137.797 15.8341C137.784 12.6425 137.955 9.45267 138.309 6.28072C138.646 3.32713 139.501 1.72345 140.874 1.46969C143.087 0.870657 146.223 0.585698 150.284 0.614818C154.344 0.643938 156.632 1.26794 157.148 2.48681C157.536 4.29804 157.664 6.15549 157.528 8.00295C157.448 10.4913 157.239 12.974 156.904 15.441L156.386 19.185C156.567 19.0963 156.766 19.0514 156.967 19.0539C157.374 19.0374 157.781 18.9958 158.183 18.9291C158.807 18.8418 159.431 18.7794 160.055 18.7357C160.679 18.692 161.403 18.6733 162.171 18.6733C162.906 18.6701 163.64 18.756 164.355 18.9291C164.696 18.9749 165.021 19.1042 165.301 19.3056C165.581 19.5069 165.807 19.7741 165.958 20.0835C166.368 20.8603 166.628 21.7069 166.726 22.5795C166.851 23.5592 166.938 24.6699 166.982 25.9117C167.025 27.1534 167.025 28.3702 166.982 29.5683C166.935 30.6793 166.956 31.792 167.044 32.9005C167.132 34.4417 166.745 35.5275 165.89 36.1702C164.797 36.9254 163.584 37.4888 162.302 37.8363C161.014 38.1728 159.826 38.8149 158.839 39.7083C157.815 40.819 157.002 43.107 156.399 46.5722C155.775 50.0292 155.974 52.7498 156.917 54.6842C157.151 54.8894 157.426 55.0413 157.725 55.1297C158.023 55.218 158.337 55.2406 158.645 55.1959C159.536 55.0562 160.414 54.8475 161.272 54.5719C161.938 54.3333 162.625 54.1619 163.325 54.0602C163.865 54.0386 164.393 54.2213 164.804 54.5719C165.224 54.9774 165.531 55.4848 165.696 56.0445C165.908 56.6685 166.102 57.2925 166.277 57.9165C166.474 58.7797 166.56 59.6647 166.532 60.5498V70.359C166.532 73.0131 165.037 74.9787 162.046 76.2558C158.838 77.5802 155.38 78.1934 151.912 78.0529C148.313 77.9932 144.735 77.4753 141.267 76.5116C140.313 76.2489 139.435 75.7658 138.702 75.1014C137.885 74.3559 137.246 73.437 136.83 72.412C136.378 71.3472 135.992 70.2551 135.676 69.1422C135.341 67.842 135.149 66.5092 135.102 65.1674C135.014 63.5824 134.95 62.2575 134.908 61.1925C134.874 59.8017 134.917 58.4101 135.039 57.0242C135.164 55.3144 135.249 54.0665 135.295 53.2802C135.339 52.5065 135.445 51.377 135.613 49.8794C135.782 48.3818 135.869 47.5956 135.869 47.5082C135.914 46.8822 136.146 46.2841 136.535 45.792C136.925 45.3 137.454 44.9369 138.053 44.7502C139.441 44.1891 140.925 43.9051 142.421 43.914C143.733 43.9578 145.041 43.7458 146.271 43.29C146.493 43.2321 146.698 43.1235 146.87 42.9729C147.043 42.8223 147.178 42.6337 147.265 42.4219C147.352 42.2102 147.389 41.9811 147.372 41.7528C147.356 41.5244 147.286 41.303 147.17 41.106C146.914 39.9953 145.922 39.4836 144.156 39.571C142.297 39.6754 140.457 40.0044 138.677 40.5507C136.797 41.1039 134.875 41.5948 132.911 42.0233C130.948 42.4518 129.623 42.4955 128.937 42.1543C127.564 41.4679 126.84 39.7395 126.753 36.9564C126.665 34.1793 126.923 31.4021 127.52 28.6885C127.585 28.5241 127.629 28.3522 127.651 28.1768C127.657 28.0458 127.678 27.9159 127.714 27.7899C127.758 27.6229 127.781 27.451 127.782 27.2782C127.81 26.7066 127.968 26.1489 128.245 25.6481C128.522 25.1473 128.91 24.7166 129.38 24.3891C130.224 23.8505 131.205 23.5627 132.206 23.5592C133.214 23.5559 134.22 23.4703 135.214 23.3034C135.626 23.2758 136.026 23.1546 136.384 22.9492C136.742 22.7437 137.048 22.4594 137.279 22.1178V22.1178Z" fill="#24B6C3"/>
<path d="M172.28 34.0424C170.395 29.7701 169.563 26.415 169.784 23.9773C170.004 21.5395 171.649 19.8506 174.719 18.9104C177.795 17.932 180.949 17.2242 184.148 16.7951C186.748 16.4956 188.693 16.4956 189.982 16.7951C191.148 17.0277 192.207 17.6346 192.996 18.5235C193.621 19.2005 194.082 20.0117 194.344 20.8947C194.531 21.8018 194.617 22.7268 194.6 23.6528C194.6 25.0256 192.676 27.505 188.828 31.0909C185.833 33.9113 184.585 35.6648 185.084 36.3512C185.341 36.5617 185.653 36.6939 185.983 36.7318C186.75 36.9065 187.855 36.3699 189.252 35.1344C190.875 33.681 192.416 32.1395 193.87 30.5168C195.534 28.6739 197.306 26.856 199.186 25.063C200.995 23.3185 203.049 21.847 205.283 20.6951C207.128 19.6431 209.271 19.2369 211.373 19.5407C212.58 19.8225 213.717 20.3503 214.711 21.0911C215.705 21.832 216.536 22.7699 217.151 23.8462C218.511 26.0876 219.219 28.663 219.198 31.2843C219.189 34.016 218.507 36.7034 217.214 39.1092C216.06 41.4639 214.078 43.3102 211.648 44.2946C210.049 44.9766 208.316 45.284 206.581 45.1932C204.917 45.1245 203.273 44.8003 201.707 44.2323C200.18 43.6648 198.683 43.0213 197.221 42.3041C195.723 41.5803 194.463 40.9188 193.439 40.3198C192.555 39.7751 191.574 39.4044 190.55 39.2278C189.652 39.103 189.121 39.2902 188.946 39.8081C188.711 40.1048 188.556 40.4573 188.497 40.8315C188.462 41.2143 188.555 41.598 188.759 41.9235C188.986 42.3269 189.242 42.7128 189.527 43.0779C189.868 43.5036 190.255 43.8907 190.681 44.2323C191.149 44.6129 191.617 44.981 192.091 45.318C192.566 45.655 193.096 46.0231 193.695 46.41C194.294 46.7969 194.85 47.1401 195.361 47.4334C195.873 47.7266 196.41 48.0574 196.965 48.4006C197.52 48.7438 197.97 49.0245 198.313 49.1681C200.189 50.3661 201.229 54.7695 201.433 62.3781C201.637 69.9867 200.975 74.6022 199.448 76.2246C198.504 77.4227 196.131 78.236 192.329 78.6644C188.644 79.0902 184.923 79.1112 181.234 78.7268C177.646 78.34 175.549 77.5974 174.95 76.4804C174.534 75.715 174.343 72.387 174.376 66.4965C174.409 60.6059 174.324 54.3452 174.12 47.7142C173.916 41.079 173.303 36.5217 172.28 34.0424Z" fill="#24B6C3"/>
<path d="M249.867 53.8979C249.867 52.243 249.21 50.6558 248.04 49.4856C246.87 48.3154 245.282 47.6579 243.627 47.6579C241.88 47.6579 237.194 48.3818 233.019 49.5299C236.801 47.3896 240.626 44.5816 241.855 43.3399C242.445 42.7664 242.915 42.0814 243.238 41.3247C243.561 40.5679 243.731 39.7545 243.737 38.9318C243.742 38.109 243.585 37.2933 243.272 36.532C242.96 35.7707 242.5 35.0791 241.918 34.4973C241.336 33.9155 240.645 33.4552 239.883 33.143C239.122 32.8308 238.306 32.6731 237.484 32.679C236.661 32.6848 235.848 32.8541 235.091 33.1771C234.334 33.5001 233.649 33.9702 233.076 34.5602C231.828 35.8082 229.038 39.6146 226.898 43.396C228.052 39.209 228.77 34.5228 228.77 32.7881C228.852 31.9227 228.753 31.0496 228.478 30.2249C228.204 29.4001 227.76 28.6419 227.175 27.9987C226.59 27.3555 225.877 26.8417 225.082 26.4901C224.287 26.1384 223.427 25.9568 222.558 25.9568C221.689 25.9568 220.829 26.1384 220.034 26.4901C219.239 26.8417 218.526 27.3555 217.941 27.9987C217.357 28.6419 216.913 29.4001 216.638 30.2249C216.363 31.0496 216.264 31.9227 216.346 32.7881C216.346 34.529 217.064 39.2152 218.218 43.396C216.078 39.6146 213.276 35.7957 212.041 34.5602C211.487 33.8911 210.799 33.3451 210.022 32.9571C209.244 32.5691 208.395 32.3476 207.527 32.3069C206.659 32.2662 205.793 32.4071 204.982 32.7206C204.172 33.0342 203.436 33.5134 202.822 34.1277C202.208 34.742 201.729 35.4777 201.415 36.2879C201.102 37.098 200.961 37.9647 201.001 38.8325C201.042 39.7002 201.264 40.5499 201.652 41.3272C202.04 42.1044 202.586 42.7921 203.255 43.3461C204.503 44.5941 208.315 47.3834 212.097 49.5299C207.904 48.3693 203.217 47.6579 201.489 47.6579C199.943 47.8051 198.508 48.5231 197.464 49.6718C196.419 50.8204 195.84 52.3173 195.84 53.8698C195.84 55.4224 196.419 56.9192 197.464 58.0679C198.508 59.2166 199.943 59.9346 201.489 60.0817C203.236 60.0817 207.922 59.3579 212.097 58.2097C208.315 60.3563 204.49 63.158 203.261 64.3936C202.592 64.9476 202.046 65.6353 201.658 66.4125C201.27 67.1897 201.048 68.0394 201.008 68.9072C200.967 69.7749 201.108 70.6416 201.421 71.4518C201.735 72.262 202.214 72.9977 202.828 73.612C203.443 74.2263 204.178 74.7055 204.989 75.019C205.799 75.3326 206.665 75.4735 207.533 75.4328C208.401 75.3921 209.251 75.1706 210.028 74.7826C210.805 74.3946 211.493 73.8485 212.047 73.1794C213.295 71.9314 216.084 68.1126 218.231 64.3249C217.07 68.5182 216.359 73.2169 216.359 74.9641C216.506 76.5097 217.224 77.9449 218.373 78.9894C219.521 80.034 221.018 80.6127 222.571 80.6127C224.123 80.6127 225.62 80.034 226.769 78.9894C227.917 77.9449 228.635 76.5097 228.783 74.9641C228.783 73.2169 228.059 68.5244 226.911 64.3561C229.057 68.1375 231.865 71.9626 233.101 73.1982C233.655 73.8673 234.342 74.4133 235.12 74.8013C235.897 75.1893 236.746 75.4108 237.614 75.4515C238.482 75.4922 239.349 75.3513 240.159 75.0378C240.969 74.7242 241.705 74.245 242.319 73.6307C242.933 73.0164 243.412 72.2807 243.726 71.4705C244.04 70.6604 244.18 69.7937 244.14 68.9259C244.099 68.0582 243.878 67.2085 243.49 66.4312C243.102 65.654 242.556 64.9663 241.886 64.4123C240.638 63.1643 236.826 60.3688 233.038 58.2285C237.231 59.3829 241.918 60.1005 243.646 60.1005C245.291 60.0955 246.868 59.4411 248.033 58.2795C249.198 57.1179 249.858 55.5431 249.867 53.8979V53.8979ZM222.567 63.9193C220.55 63.9218 218.578 63.3259 216.899 62.207C215.221 61.0882 213.912 59.4966 213.139 57.6337C212.365 55.7709 212.161 53.7204 212.553 51.7417C212.945 49.763 213.915 47.9451 215.341 46.5179C216.766 45.0907 218.583 44.1183 220.561 43.7239C222.539 43.3295 224.59 43.5307 226.454 44.302C228.318 45.0734 229.911 46.3802 231.032 48.0572C232.153 49.7343 232.751 51.7061 232.751 53.7232C232.745 56.4232 231.67 59.0109 229.762 60.9213C227.854 62.8316 225.267 63.9094 222.567 63.9193V63.9193Z" fill="#FAAB1C"/>
<path d="M222.567 45.3553C220.912 45.3553 219.295 45.8461 217.919 46.7656C216.542 47.685 215.47 48.9919 214.837 50.5209C214.203 52.05 214.038 53.7324 214.36 55.3556C214.683 56.9788 215.48 58.4698 216.651 59.6401C217.821 60.8103 219.312 61.6073 220.935 61.9302C222.558 62.2531 224.241 62.0873 225.77 61.454C227.299 60.8207 228.606 59.7481 229.525 58.3721C230.445 56.996 230.935 55.3782 230.935 53.7232C230.924 51.5074 230.039 49.3857 228.472 47.8189C226.905 46.2521 224.783 45.3668 222.567 45.3553V45.3553ZM222.567 59.0209C221.52 59.0197 220.496 58.7079 219.626 58.125C218.756 57.5422 218.077 56.7143 217.677 55.7462C217.277 54.7781 217.173 53.713 217.379 52.6858C217.584 51.6586 218.089 50.7152 218.83 49.9749C219.571 49.2346 220.515 48.7307 221.542 48.5268C222.57 48.3229 223.635 48.4281 224.603 48.8293C225.57 49.2304 226.397 49.9095 226.979 50.7805C227.561 51.6516 227.871 52.6756 227.871 53.7232C227.862 55.1262 227.299 56.469 226.307 57.4606C225.314 58.4521 223.971 59.0127 222.567 59.0209Z" fill="#24B6C3"/>
<path d="M266.674 57.1698C268.396 57.1698 269.976 57.6006 271.412 58.462C272.847 59.3235 273.96 60.5079 274.75 62.0155C275.611 63.4512 276.042 65.0306 276.042 66.7535C276.042 68.4046 275.611 69.948 274.75 71.3838C273.96 72.8195 272.847 73.9681 271.412 74.8296C269.976 75.691 268.396 76.1217 266.674 76.1217C264.089 76.1217 261.864 75.2244 259.997 73.4297C258.131 71.5632 257.198 69.3378 257.198 66.7535C257.198 64.0973 258.131 61.836 259.997 59.9695C261.864 58.1031 264.089 57.1698 266.674 57.1698Z" fill="#24B6C3"/>
<path d="M280.698 75.9064C279.909 75.2603 279.442 71.8145 279.298 65.569C279.155 59.3235 279.298 52.5754 279.729 45.3249C280.16 38.0026 280.878 31.2904 281.883 25.1885C282.888 19.0148 283.965 15.6766 285.113 15.1741C286.764 14.887 290.282 14.7793 295.666 14.8511C301.122 14.9229 304.46 15.1382 305.68 15.4972C307.331 15.9279 308.947 17.1842 310.526 19.266C312.105 21.3478 312.572 23.8604 311.926 26.8037C311.639 28.3112 310.167 31.434 307.511 36.172C305.573 39.6178 305.142 41.556 306.219 41.9868C306.793 42.2021 307.69 42.1662 308.911 41.8791C310.777 41.3766 312.392 39.8331 313.756 37.2488C315.192 34.5926 316.197 31.8288 316.771 28.9573C317.418 26.014 318.028 23.2143 318.602 20.5582C319.248 17.8303 319.822 16.2509 320.325 15.8202C322.12 14.1691 327.683 13.7743 337.016 14.6357C337.159 14.7075 337.339 14.7434 337.554 14.7434C339.923 14.9588 341.287 15.6048 341.646 16.6817C342.005 17.6867 342.112 21.2043 341.969 27.2344C341.897 30.6802 342.435 36.3514 343.584 44.2481C344.733 52.0729 345.738 59.0363 346.599 65.1382C347.461 71.2402 347.496 74.6142 346.707 75.2603C345.558 76.2653 341 76.7678 333.031 76.7678C325.135 76.8396 320.612 76.6242 319.463 76.1217C318.315 75.7628 317.705 74.3629 317.633 71.9222C317.561 69.4096 317.884 67.1483 318.602 65.1382C318.817 64.205 319.392 63.3436 320.325 62.5539C321.33 61.7642 322.335 61.0822 323.34 60.5079C324.345 59.9336 325.386 59.144 326.463 58.139C327.611 57.0621 328.437 55.8777 328.939 54.5855C330.303 51.355 330.339 49.4527 329.047 48.8784C328.257 48.5194 327.36 48.986 326.355 50.2782C326.068 50.6372 325.35 51.714 324.201 53.5087C323.053 55.2316 322.012 56.6673 321.079 57.8159C320.145 58.9645 318.853 59.9695 317.202 60.831C315.623 61.6924 313.972 61.9078 312.249 61.4771C309.952 60.831 306.972 58.5338 303.311 54.5855C300.942 52.0011 299.327 50.7807 298.466 50.9243C298.035 50.9961 297.64 51.3909 297.281 52.1088C296.276 54.5496 296.85 56.775 299.004 58.785C301.158 60.7233 303.921 62.3026 307.295 63.523C308.372 63.882 309.162 64.3845 309.664 65.0306C310.239 65.6049 310.562 66.3227 310.634 67.1842C310.705 67.9739 310.669 68.7635 310.526 69.5532C310.454 70.3428 310.311 71.2761 310.095 72.3529C309.952 73.3579 309.88 74.1835 309.88 74.8296C309.88 76.1935 307.69 77.1268 303.311 77.6293C298.932 78.1318 294.338 78.2036 289.528 77.8446C284.718 77.4857 281.775 76.8396 280.698 75.9064Z" fill="#24B6C3"/>
<path d="M350.625 42.6329C350.554 40.2639 350.446 37.9308 350.302 35.6336C350.231 33.3364 350.123 31.434 349.979 29.9265C349.836 28.4189 349.692 26.9832 349.549 25.6192C349.477 24.1835 349.405 23.0349 349.333 22.1734C349.261 21.312 349.226 20.4864 349.226 19.6967C349.226 18.9071 349.261 18.2969 349.333 17.8662C349.405 17.3636 349.549 16.897 349.764 16.4663C349.979 16.0356 350.231 15.6766 350.518 15.3895C350.805 15.1023 351.236 14.8152 351.81 14.528C360.568 13.8819 370.439 13.9178 381.422 14.6357C392.765 15.4254 399.405 21.6709 401.343 33.3723C402.492 40.9099 401.379 47.4067 398.005 52.8626C394.703 58.2466 389.714 61.2976 383.037 62.0155C381.386 62.2308 379.807 62.2667 378.299 62.1232C376.864 61.9796 375.5 61.7283 374.208 61.3694C372.987 61.0105 371.839 60.6156 370.762 60.1849C369.757 59.6824 368.824 59.1799 367.962 58.6774C367.172 58.1749 366.419 57.7441 365.701 57.3852C365.055 56.9545 364.48 56.6673 363.978 56.5237C363.475 56.3084 363.009 56.2725 362.578 56.4161C362.219 56.4878 361.932 56.775 361.717 57.2775C361.573 57.78 361.465 58.2466 361.394 58.6774C361.394 59.0363 361.573 59.4311 361.932 59.8619C362.363 60.2208 362.722 60.5438 363.009 60.831C363.368 61.1181 363.87 61.4053 364.516 61.6924C365.234 61.9796 365.844 62.2308 366.347 62.4462C366.921 62.6616 367.603 62.8769 368.393 63.0923C369.254 63.3077 369.936 63.4871 370.439 63.6307C371.013 63.7743 371.659 63.9537 372.377 64.1691C373.167 64.3845 373.777 64.5281 374.208 64.5998C375.284 64.9588 376.038 65.6049 376.469 66.5381C376.971 67.3996 377.187 68.3687 377.115 69.4455C377.043 70.4505 376.828 71.4555 376.469 72.4606C376.182 73.3938 375.823 74.1835 375.392 74.8296C374.89 75.6192 372.736 76.1935 368.931 76.5525C365.126 76.8396 361.286 76.8037 357.409 76.4448C353.533 76.0858 351.271 75.4398 350.625 74.5065C350.266 74.004 350.015 73.322 349.872 72.4606C349.8 71.5273 349.8 70.3428 349.872 68.9071C350.015 67.3996 350.159 65.4972 350.302 63.2C350.446 60.9028 350.554 58.1031 350.625 54.8008C350.769 51.4268 350.769 47.3708 350.625 42.6329ZM375.392 40.5869C375.464 41.4484 375.428 42.1662 375.284 42.7405C375.213 43.3148 375.284 43.8173 375.5 44.2481C375.715 44.607 375.823 44.8942 375.823 45.1095C375.895 45.2531 376.074 45.3967 376.361 45.5402C376.648 45.612 376.864 45.6838 377.007 45.7556C377.223 45.7556 377.51 45.7556 377.869 45.7556C378.299 45.7556 378.623 45.7556 378.838 45.7556C379.412 45.6838 379.879 45.5044 380.238 45.2172C380.668 44.9301 380.956 44.5352 381.099 44.0327C381.315 43.4584 381.458 42.9918 381.53 42.6329C381.602 42.2021 381.602 41.556 381.53 40.6946C381.458 39.8331 381.386 39.2229 381.315 38.864C381.243 38.5051 381.099 37.859 380.884 36.9257C380.74 35.9925 380.668 35.4541 380.668 35.3105C380.381 33.5876 379.843 32.439 379.053 31.8647C378.264 31.2904 377.079 31.2186 375.5 31.6494C374.782 31.8647 374.351 32.1878 374.208 32.6185C374.136 33.0492 374.208 33.5517 374.423 34.126C374.71 34.7003 374.961 35.5977 375.177 36.8181C375.392 38.0384 375.464 39.2947 375.392 40.5869Z" fill="#24B6C3"/>
<path d="M416.614 38.864C416.542 40.1562 415.429 40.3357 413.276 39.4024C410.476 38.0384 408.322 35.8489 406.815 32.8339C405.738 30.752 405.343 28.6343 405.63 26.4807C406.205 21.8863 409.292 18.7276 414.891 17.0047C420.562 15.21 427.382 15.0305 435.35 16.4663C441.668 17.5431 445.903 20.2351 448.057 24.5424C450.21 28.8496 450.569 32.9774 449.134 36.9257C447.698 40.8023 445.652 42.92 442.996 43.2789C442.134 43.3507 441.058 43.2789 439.765 43.0636C438.545 42.7764 437.755 42.7405 437.396 42.9559C437.037 43.0995 437.037 43.6379 437.396 44.5711C437.683 45.3608 438.294 45.9351 439.227 46.294C440.16 46.5812 441.129 46.7965 442.134 46.9401C443.211 47.0119 444.288 47.5144 445.365 48.4476C446.442 49.3091 447.195 50.5654 447.626 52.2165C448.775 55.8777 449.241 60.149 449.026 65.0306C448.811 69.9121 447.913 72.8195 446.334 73.7527C445.185 74.3988 441.488 74.9372 435.243 75.368C429.069 75.7269 422.823 75.7987 416.506 75.5833C410.261 75.2962 406.599 74.686 405.523 73.7527C403.943 71.8145 403.261 69.0866 403.477 65.569C403.692 62.0514 404.482 58.9645 405.846 56.3084C407.999 52.0011 412.522 52.7549 419.414 58.5697C422.357 61.0105 425.695 61.3694 429.428 59.6465C431.653 58.5697 432.838 57.3493 432.981 55.9853C432.981 55.5546 432.802 55.1598 432.443 54.8008C431.797 54.2983 430.828 54.1189 429.536 54.2624C428.243 54.406 426.951 54.7291 425.659 55.2316C424.439 55.6623 423.218 55.8418 421.998 55.77C420.778 55.6982 419.916 55.1598 419.414 54.1547C418.409 51.9293 418.157 48.9143 418.66 45.1095C419.162 41.233 420.131 39.0076 421.567 38.4333C421.854 38.2897 422.931 37.9667 424.798 37.4641C426.736 36.9616 428.208 36.3514 429.213 35.6336C430.289 34.8439 430.971 33.7312 431.259 32.2954C431.402 31.3622 429.715 31.5058 426.197 32.7262C421.172 34.5209 417.978 36.5668 416.614 38.864Z" fill="#24B6C3"/>
</svg>
