<svg width="24" height="24" viewBox="0 0 24 24" fill="none" xmlns="http://www.w3.org/2000/svg">
<path d="M9 9.00012H11V15.0001H9V9.00012Z" fill=" #24B6C3"/>
<path d="M15 15.0001H13V9.00012H15V15.0001Z" fill=" #24B6C3"/>
<path fill-rule="evenodd" clip-rule="evenodd" d="M1 5.00012C1 2.79098 2.79086 1.00012 5 1.00012H19C21.2091 1.00012 23 2.79098 23 5.00012V19.0001C23 21.2093 21.2091 23.0001 19 23.0001H5C2.79086 23.0001 1 21.2093 1 19.0001V5.00012ZM5 3.00012H19C20.1046 3.00012 21 3.89555 21 5.00012V19.0001C21 20.1047 20.1046 21.0001 19 21.0001H5C3.89543 21.0001 3 20.1047 3 19.0001V5.00012C3 3.89555 3.89543 3.00012 5 3.00012Z" fill="#24B6C3"/>
</svg>
