<svg width="60" height="60" viewBox="0 0 60 60" fill="none" xmlns="http://www.w3.org/2000/svg">
<path fill-rule="evenodd" clip-rule="evenodd" d="M48.6667 5.99996H11.3333C8.38782 5.99996 6 8.38777 6 11.3333V48.6666C6 51.6121 8.38782 54 11.3333 54H48.6667C51.6122 54 54 51.6121 54 48.6666V11.3333C54 8.38777 51.6122 5.99996 48.6667 5.99996ZM11.3333 0.666626C5.4423 0.666626 0.666668 5.44226 0.666668 11.3333V48.6666C0.666668 54.5577 5.4423 59.3333 11.3333 59.3333H48.6667C54.5577 59.3333 59.3333 54.5577 59.3333 48.6666V11.3333C59.3333 5.44226 54.5577 0.666626 48.6667 0.666626H11.3333Z" fill="#24B0BE"/>
<path d="M40.6667 30L24.6667 41.547V18.453L40.6667 30Z" fill="#24B0BE"/>
</svg>
