<svg width="259" height="259" viewBox="0 0 259 259" fill="none" xmlns="http://www.w3.org/2000/svg">
<path d="M129.5 0.0020752C57.98 0.0020752 0 57.9815 0 129.502C0 201.021 57.98 259 129.5 259C201.02 259 259 201.021 259 129.502C259 57.9815 201.021 0.0020752 129.5 0.0020752ZM233.099 129.502C233.099 152.737 225.318 174.134 212.35 191.435L142.45 121.521V26.8004C193.473 33.2073 233.099 76.7745 233.099 129.502ZM116.551 232.203C97.0341 229.755 79.1838 221.901 64.5892 210.122L116.551 158.163V232.203ZM142.45 158.154L194.418 210.122C179.816 221.9 161.967 229.754 142.45 232.203V158.154ZM116.551 26.8004V121.53L46.6475 191.436C33.6823 174.135 25.8993 152.737 25.8993 129.502C25.8993 76.7745 65.5266 33.2073 116.551 26.8004Z" fill="#24B6C3"/>
</svg>
